# xmcd
#
# Track frame offsets:
#  150
#  18330
#  38017
#  53831
#  74220
#  94043
#  110003
#  139102
#  157946
#  170427
#  190429
#  213710
#
# Disc length: 3143 seconds
#
# Revision: 0
# Processed by: cddbd v1.5.1PL2 Copyright (c) Steve Scherf et al.
# Submitted via: Collectorz.com_Music_Collector 6.9
#
DISCID=ad0c450c
DTITLE=Doctor G - Mudcat
DYEAR=2005
DGENRE=Blues -  Blues Country -  Blues Texas Style
TTITLE0=Mississippi River Mud
TTITLE1=Lights Of San Antone
TTITLE2=Rockin' Rita
TTITLE3=Lawrence Avenue
TTITLE4=Fadin' Out, Fadin' In
TTITLE5=Swinging On A Texas Moon
TTITLE6=T-Bird Fly
TTITLE7=Don't Come Around Me Now
TTITLE8=River Bottoms Blues
TTITLE9=It's The Music
TTITLE10=Jones County Jubilee
TTITLE11=Night Train From Pecos
EXTD=
EXTT0=
EXTT1=
EXTT2=
EXTT3=
EXTT4=
EXTT5=
EXTT6=
EXTT7=
EXTT8=
EXTT9=
EXTT10=
EXTT11=
PLAYORDER=
